<svg xmlns="http://www.w3.org/2000/svg" preserveAspectRatio="xMidYMid meet" viewBox="0 0 1111 932"><g fill="currentColor" class="nc-icon-wrapper"><g transform="matrix(.1 0 0 -.1 0 932)" fill="currentColor" stroke="none"><path d="M1710 9313C865 9247 213 8742 40 8019c-120-502 55-1086 421-1407 154-134 270-196 495-261l92-27-64-94c-192-287-262-566-208-828 87-426 492-692 1055-692 181 0 276 18 501 94l187 63 38-19c21-10 49-25 62-32 29-17 58-8 84 26 16 21 22 74 43 393 22 335 22 371 8 392-12 20-22 24-52 21-36-3-38-6-87-103-67-132-122-211-214-308-103-109-214-190-346-252-150-71-217-89-345-89-125-1-187 13-298 65-111 53-189 130-239 235-37 76-38 83-37 184 0 119 16 185 71 294 98 194 251 378 758 906 429 447 854 872 1067 1067 199 183 526 468 536 468 12 0 84-154 111-240 42-133 55-223 55-390-1-187-19-277-79-401-35-72-58-104-107-149-77-72-115-89-263-119-132-27-168-47-173-94-5-50 19-57 162-42 121 13 778 8 958-6 74-6 77-5 93 20 31 46 15 69-82 117-65 33-94 54-115 84-38 55-63 160-82 350-46 442-111 682-255 934-23 41-38 77-34 80 5 3 74 58 154 122 329 265 688 505 874 584 171 74 285 105 381 105 36 0 94-10 144-25 122-36 170-32 170 17 0 29-65 92-127 126-245 129-667 153-972 56-184-59-467-228-791-471l-146-109-114 94c-246 201-554 379-790 456-254 83-565 120-830 99zm508-403c266-20 492-83 712-196 120-62 300-184 300-203 0-9-152-142-360-316-361-301-1105-1043-1418-1415-137-162-237-259-298-290-105-52-216-34-359 57-174 113-310 308-381 548-36 120-45 362-20 499 78 414 355 798 756 1047 276 171 543 252 915 278 11 0 80-4 153-9z"></path><path d="M9075 9314c-104-9-273-36-366-59-333-84-667-267-979-536l-66-57-140 105c-294 222-573 392-751 459-167 63-395 92-587 74-265-25-503-117-549-213-14-29-14-33 0-49 22-25 62-23 162 8 74 23 98 26 173 21 266-17 679-249 1236-694 78-63 142-117 142-121s-31-68-69-143c-124-245-178-454-216-829-35-354-58-402-227-482-41-19-59-34-64-52-8-34 3-64 27-71 11-4 93-1 182 5 163 12 842 8 938-5 54-8 82 11 77 53s-54 66-180 91c-150 30-187 48-267 128-76 78-120 159-152 280-42 163-34 432 17 611 22 77 110 282 122 282 6 0 250-211 427-369 83-73 368-353 635-620 1004-1005 1264-1307 1344-1561 67-212 31-377-112-511-116-110-254-162-427-162-224 0-453 104-656 300-115 111-180 199-249 338l-55 110-42 3c-68 5-68 5-44-374 25-393 26-405 52-438 26-34 62-33 111 0 21 15 51 27 66 27s100-26 189-57c214-76 314-96 478-96 373 0 671 103 865 301 306 311 304 787-7 1232-30 43-53 80-51 81 2 2 53 18 113 35 61 18 155 54 210 80 336 160 588 502 686 930 26 113 36 373 20 504-92 729-705 1298-1531 1422-104 15-389 27-485 19zm204-420c629-93 1196-551 1386-1118 51-150 68-274 62-436-6-149-25-238-80-374-108-265-360-493-557-504-129-8-195 40-424 308-196 228-392 434-742 780-361 358-502 488-789 731-121 103-229 196-239 208-19 21-19 21 0 42 33 37 222 158 317 203 330 158 701 214 1066 160z"></path><path d="M6715 6000c-599-64-1056-473-1180-1055-81-380-5-792 202-1103 179-269 457-438 836-509 117-21 465-25 577-5 261 46 488 134 692 269 77 51 76 49 112 243 14 74 28 149 31 166 7 34-14 60-40 51-8-4-30-39-50-78-69-140-180-254-360-371-269-174-614-224-909-131-407 128-689 488-782 998-25 139-26 453-1 580 102 523 442 823 953 842 228 9 406-29 566-121 185-105 312-237 460-478 33-54 66-98 73-98 38 0 38 23 0 292-20 145-42 274-49 288-13 28-48 30-76 5-26-24-50-18-150 34-284 147-611 212-905 181z"></path><path d="M3715 5964c-141-9-296-12-402-8-181 6-213 1-213-36 0-25 22-36 91-44 76-9 170-55 203-99 37-49 62-118 74-207 15-108 26-1648 13-1826-12-156-37-258-73-292-28-26-79-48-135-57-53-8-69-25-53-56 12-21 16-21 99-15 229 17 430 18 608 2 228-20 367-20 499-1 356 53 618 252 709 537 86 272 30 543-150 723-83 82-171 132-300 170-49 14-90 27-92 29-11 10 16 37 83 81 320 212 368 624 103 885-195 193-480 250-1064 214zm488-123c98-27 191-71 259-122 174-130 275-404 223-602-31-120-90-194-196-247-99-51-165-60-435-60-232 0-242 1-260 21s-19 45-22 468c-3 534-4 529 97 562 46 15 250 2 334-20zm252-1194c213-71 362-228 422-447 27-100 24-283-6-380-64-209-185-332-382-387-51-14-100-17-249-17-201 1-298 15-380 57-79 40-76 17-83 616-4 316-3 541 3 555 5 13 17 27 27 30 10 2 142 4 293 2 267-3 277-3 355-29z"></path><path d="M9110 4609c-90-11-222-47-384-106-66-24-129-43-141-43s-43 14-69 32c-40 26-53 30-74 22-52-18-58-49-83-443l-22-364 22-19c29-23 63-23 83 0 9 9 36 60 62 112 167 345 532 610 861 627 128 6 222-13 333-68 197-97 298-275 272-481-29-230-168-437-612-910-242-256-831-860-1019-1043-250-243-779-715-802-715-14 0-94 180-121 271-34 121-50 270-43 419 10 218 67 372 179 482 76 75 110 91 257 122 68 15 129 29 135 33 30 16 56 49 56 69 0 45-15 47-222 34-183-12-572-9-866 6-124 6-142 1-142-45 0-39 8-47 100-93 69-35 89-51 112-88 37-60 55-135 73-304 51-472 90-629 222-894 43-88 72-157 66-160-5-4-54-43-109-88-638-519-1138-776-1379-710-187 51-182 50-210 32-33-21-27-46 22-98 90-93 321-164 568-175 429-18 689 89 1272 523l153 114 131-105c393-316 748-478 1162-531 180-23 490-15 667 16 798 141 1377 698 1471 1415 16 124 6 373-21 497-85 400-329 743-650 917-72 38-297 121-332 121-31 0-28 17 11 71 101 143 187 322 224 469 29 118 29 322-1 431-51 188-171 353-337 463-221 147-567 220-875 185zm1090-1773c129-51 279-183 364-319 213-342 222-754 25-1152-229-466-702-816-1251-927-97-20-142-23-328-23-242 1-336 13-530 72-203 60-393 155-534 265l-76 59 55 51c30 28 133 115 228 195 266 223 461 406 852 798 343 342 525 536 698 741 140 167 232 243 321 265 43 10 111 1 176-25z"></path><path d="M1603 4599c-255-37-453-129-608-284-124-124-188-238-222-398-23-111-13-315 21-432 42-141 141-336 228-447 21-27 26-39 16-42-304-89-414-143-573-282-215-187-373-476-437-797-29-145-30-382-4-532 37-212 137-451 263-628 78-110 276-306 393-390 254-180 599-308 939-347 140-17 495-8 621 15 385 70 713 228 1064 512 60 48 116 93 125 100 13 10 39-5 156-94 539-406 828-533 1217-533 270 0 557 82 648 187 36 41 38 67 6 88-26 17-53 13-199-31-187-56-541 89-992 409-116 82-326 242-437 334l-77 64 59 112c137 261 186 444 230 849 24 223 41 310 68 364 27 53 50 72 140 119 89 46 110 78 77 115-18 19-27 21-100 16-211-14-834-18-951-6-143 15-167 8-162-42 5-48 41-67 174-94 66-13 137-32 159-41 64-28 167-137 209-221 131-260 103-721-60-999l-25-43-91 77c-359 306-664 594-1114 1053-537 549-806 835-945 1006-243 299-326 517-273 719 45 177 214 317 434 361 250 50 539-59 785-298 108-104 167-185 245-336 54-105 56-107 92-110 30-3 40 1 53 21 14 23 14 49-4 323-30 433-31 441-53 469-21 27-80 35-94 14-3-6-24-19-46-29l-40-18-186 64c-103 35-222 70-264 79-85 17-357 19-465 4zm-448-1767c59-29 171-140 316-312 155-183 378-417 715-750 361-357 502-488 789-731 121-102 229-196 240-208 19-22 19-22-10-46-445-366-1127-476-1702-274C936 710 485 1208 394 1734c-22 126-14 370 15 477 62 227 195 430 355 543 161 114 274 137 391 78z"></path></g></g></svg>